<svg xmlns="http://www.w3.org/2000/svg" viewBox="0 0 512 512" role="img" aria-label="귀여운 가계부">
  <defs>
    <linearGradient id="bg" x1="76" y1="40" x2="438" y2="472" gradientUnits="userSpaceOnUse">
      <stop stop-color="#a7e9c3"/>
      <stop offset="1" stop-color="#f7d88b"/>
    </linearGradient>
    <filter id="softShadow" x="-20%" y="-20%" width="140%" height="140%">
      <feDropShadow dx="0" dy="16" stdDeviation="18" flood-color="#1d2a24" flood-opacity=".18"/>
    </filter>
  </defs>
  <rect width="512" height="512" rx="112" fill="url(#bg)"/>
  <circle cx="92" cy="120" r="22" fill="#fff7d8" opacity=".9"/>
  <circle cx="424" cy="382" r="28" fill="#fff7d8" opacity=".78"/>
  <path d="M116 172c0-31 25-56 56-56h185c31 0 56 25 56 56v192c0 31-25 56-56 56H172c-31 0-56-25-56-56V172z" fill="#fffdf5" filter="url(#softShadow)"/>
  <path d="M116 172c0-31 25-56 56-56h40v304h-40c-31 0-56-25-56-56V172z" fill="#49b87a"/>
  <path d="M212 116h145c31 0 56 25 56 56v18H212v-74z" fill="#fff3c4"/>
  <path d="M172 224h184M172 274h126M172 324h154" stroke="#237a55" stroke-width="20" stroke-linecap="round"/>
  <circle cx="208" cy="361" r="9" fill="#25372d"/>
  <circle cx="278" cy="361" r="9" fill="#25372d"/>
  <path d="M228 386c13 12 32 12 45 0" stroke="#25372d" stroke-width="12" stroke-linecap="round" fill="none"/>
  <circle cx="355" cy="335" r="50" fill="#ffd15c" stroke="#f4b638" stroke-width="12"/>
  <path d="M355 304v62M330 323h50M330 347h50" stroke="#8d6417" stroke-width="12" stroke-linecap="round"/>
  <path d="M154 86c8-18 33-18 41 0 9-18 34-12 34 9 0 26-34 42-34 42s-34-16-34-42c0-4 1-7 3-9z" fill="#ff8585"/>
</svg>
